<?xml version="1.0" encoding="UTF-8" standalone="no"?>
<svg
   xmlns:dc="http://purl.org/dc/elements/1.1/"
   xmlns:cc="http://creativecommons.org/ns#"
   xmlns:rdf="http://www.w3.org/1999/02/22-rdf-syntax-ns#"
   xmlns:svg="http://www.w3.org/2000/svg"
   xmlns="http://www.w3.org/2000/svg"
   width="141.84956"
   height="135.67383"
   viewBox="0 0 141.84956 135.67383"
   fill="none"
   version="1.1"
   id="svg1293">
  <metadata
     id="metadata1299">
    <rdf:RDF>
      <cc:Work
         rdf:about="">
        <dc:format>image/svg+xml</dc:format>
        <dc:type
           rdf:resource="http://purl.org/dc/dcmitype/StillImage" />
        <dc:title></dc:title>
      </cc:Work>
    </rdf:RDF>
  </metadata>
  <defs
     id="defs1297" />
  <g
     id="layer9"
     style="display:inline;fill:#ffffff;fill-opacity:1">
    <path
       id="path929"
       style="display:inline;fill:#ffffff;fill-opacity:1;stroke:none;stroke-width:1px;stroke-linecap:butt;stroke-linejoin:miter;stroke-opacity:1"
       d="m 0,0 v 8 a 8,7.9999995 0 0 1 8,8 v 103.67383 a 7.9999995,8 0 0 1 -8,8 v 8 h 8 46.886719 8 v -8 a 8,7.9999995 0 0 1 -8,-8 v -12.01758 a 7.9999995,8 0 0 1 8,-8 h 4.033203 l 11.324219,20.97852 a 4.7726044,4.7726044 0 0 1 -4.199219,7.03906 v 8 h 16 48.175778 3.62891 v -8 c -4.41828,1e-5 -9.91799,-3.50933 -11.83594,-7.01953 L 113.81641,91.007812 c 10.71757,-6.837654 18.13556,-17.592239 20.54882,-31.310546 0.005,-0.02989 0.0104,-0.05993 0.0156,-0.08984 0.17699,-1.016251 0.32585,-2.047409 0.44726,-3.095703 0.007,-0.0636 0.0143,-0.12769 0.0215,-0.191407 0.11533,-1.02646 0.20868,-2.066753 0.26953,-3.123046 0.005,-0.08539 0.007,-0.172226 0.0117,-0.257813 0.0569,-1.068105 0.0898,-2.148421 0.0898,-3.246094 0,-0.970664 -0.0193,-1.930828 -0.0586,-2.878906 C 134.57269,32.593286 129.58626,20.947983 120.92578,12.904297 111.68794,4.324364 98.571363,0 83.121094,0 H 8 Z m 24,8 h 14.886719 a 8,7.9999995 0 0 1 8,8 v 17.181641 4 29.279297 33.195312 20.01758 a 7.9999995,8 0 0 1 -8,8 H 24 a 8,7.9999995 0 0 1 -8,-8 V 16 a 7.9999995,8 0 0 1 8,-8 z m 38.886719,0 h 20.234375 c 13.970231,0 24.904546,3.839908 32.361326,10.765625 6.99073,6.49286 11.18981,15.83537 11.6875,28.376953 0.0332,0.836106 0.0508,1.686133 0.0508,2.550781 0,17.668049 -7.7388,29.511643 -20.63476,36.294922 l -0.1543,0.08203 -1.09766,0.576172 c -0.97157,0.453354 -2.79703,1.178394 -6.322261,2.066407 -5.709028,1.438118 -15.166531,2.943359 -29.705078,2.943359 H 54.886719 V 74.460938 a 7.9999995,8 0 0 1 8,-8 h 15.628906 c 0.610439,0 1.213588,-0.02344 1.808594,-0.07031 4.165039,-0.328127 7.912271,-1.806051 10.679687,-4.453125 3.162762,-3.025227 4.816406,-7.424442 4.816406,-12.244141 0,-0.602467 -0.02615,-1.198479 -0.07812,-1.785156 -0.363801,-4.106735 -1.993241,-7.779637 -4.78125,-10.369141 -3.186297,-2.959431 -7.603383,-4.357421 -12.445313,-4.357421 H 54.886719 V 16 a 7.9999995,8 0 0 1 8,-8 z m -8,33.181641 h 23.628906 c 3.34477,0 5.581322,0.901082 7,2.21875 1.418678,1.317669 2.304688,3.196906 2.304687,6.292968 0,3.096002 -0.905442,5.083393 -2.347656,6.462891 -1.442213,1.379498 -3.653841,2.304688 -6.957031,2.304688 H 54.886719 Z m 51.820311,53.5 14.19531,25.980469 a 4.7451631,4.7451631 0 0 1 -4.16796,7.01172 H 99.136719 A 13.409877,13.409877 0 0 1 87.375,120.70508 L 75.947266,99.537109 C 87.411384,99.15807 95.51337,97.84395 100.96484,96.470703 c 2.35656,-0.593623 4.26383,-1.225223 5.74219,-1.789062 z" />
  </g>
</svg>
